<?xml version="1.0" standalone="no"?>
<!DOCTYPE svg PUBLIC "-//W3C//DTD SVG 20010904//EN"
 "http://www.w3.org/TR/2001/REC-SVG-20010904/DTD/svg10.dtd">
<svg version="1.0" xmlns="http://www.w3.org/2000/svg"
 width="512.000000pt" height="512.000000pt" viewBox="0 0 512.000000 512.000000"
 preserveAspectRatio="xMidYMid meet">
<metadata>
Created by potrace 1.11, written by Peter Selinger 2001-2013
</metadata>
<g transform="translate(0.000000,512.000000) scale(0.100000,-0.100000)"
fill="#000000" stroke="none">
<path d="M2305 5099 c-465 -59 -811 -184 -1170 -424 -526 -351 -900 -886
-1049 -1499 -168 -693 -46 -1415 338 -2001 142 -216 353 -447 551 -605 358
-284 796 -466 1265 -525 69 -8 155 -20 192 -25 86 -13 154 -13 248 0 311 42
380 53 457 71 210 49 375 111 578 214 658 335 1142 950 1310 1662 22 92 33
160 75 473 13 94 13 162 0 248 -5 37 -17 123 -25 192 -57 454 -218 854 -490
1219 -93 125 -302 341 -428 442 -461 371 -1033 572 -1617 568 -91 -1 -196 -6
-235 -10z m960 -1084 c56 -27 134 -94 168 -144 l16 -24 53 48 c29 26 78 60
108 74 48 23 68 26 155 26 87 0 107 -3 155 -26 30 -14 69 -38 87 -53 45 -38
99 -151 108 -225 7 -60 8 -61 37 -61 42 0 144 -28 190 -51 64 -32 113 -85 144
-151 25 -55 29 -75 29 -158 0 -87 -3 -101 -34 -167 -32 -68 -103 -151 -154
-179 -16 -9 -15 -14 12 -70 96 -195 49 -411 -111 -514 -72 -47 -140 -65 -243
-64 -100 1 -139 17 -143 59 -4 55 6 60 141 65 109 5 128 9 167 32 25 14 55 39
67 55 27 37 53 114 53 156 0 60 -31 151 -72 215 -52 80 -47 101 34 149 134 78
193 206 157 338 -28 103 -109 152 -257 158 -121 5 -128 11 -134 121 -5 95 -40
182 -87 215 -69 49 -198 52 -276 7 -46 -27 -101 -89 -129 -143 -17 -35 -45
-48 -82 -39 -17 5 -33 26 -60 79 -58 117 -122 169 -230 183 -139 18 -255 -78
-314 -259 -18 -58 -42 -64 -144 -37 -77 21 -92 22 -140 11 -30 -7 -72 -25 -93
-40 -46 -33 -89 -109 -98 -173 -11 -76 24 -198 77 -267 33 -44 24 -69 -55
-145 -94 -91 -112 -127 -112 -231 0 -95 22 -152 80 -208 53 -51 123 -71 219
-62 72 7 75 7 91 -19 22 -34 8 -71 -32 -87 -49 -20 -181 -14 -245 10 -198 76
-295 340 -198 538 17 35 54 86 81 114 l50 52 -30 67 c-16 38 -35 98 -42 134
-28 163 55 337 196 406 45 23 62 25 175 25 l125 0 30 59 c39 78 110 155 176
191 72 39 101 45 195 41 62 -3 93 -10 139 -31z m-2033 -687 c21 -16 60 -70
100 -140 95 -165 276 -475 313 -536 l33 -53 57 98 c133 227 230 392 268 458
73 126 99 165 118 175 35 19 46 12 51 -33 3 -24 18 -71 33 -105 l28 -62 -47
-50 c-70 -75 -98 -144 -104 -254 -10 -210 74 -356 262 -450 56 -29 88 -38 148
-43 67 -5 77 -9 82 -27 3 -12 6 -171 6 -354 0 -349 -3 -380 -45 -396 -9 -3
-105 -6 -214 -6 l-198 0 -24 26 -24 26 0 399 c0 219 -2 399 -5 399 -3 0 -22
-33 -44 -73 -95 -178 -191 -329 -218 -343 -18 -9 -62 -14 -136 -14 -109 0
-109 0 -144 33 -21 19 -78 106 -138 212 -56 99 -105 183 -108 187 -4 4 -6
-175 -4 -397 l4 -404 -26 -26 -25 -25 -205 0 -205 0 -20 26 c-21 27 -21 32
-21 876 l0 850 32 30 31 29 177 -3 c174 -3 177 -3 212 -30z m1616 11 c13 -8
67 -88 122 -179 138 -231 334 -568 360 -619 12 -24 25 -39 29 -35 4 5 45 74
91 154 46 80 109 188 140 240 31 52 98 169 150 259 88 153 98 165 139 184 58
25 178 22 210 -7 34 -31 26 -69 -38 -174 -32 -54 -104 -176 -161 -272 -165
-279 -250 -421 -284 -475 l-31 -50 -5 -398 -5 -399 -24 -19 c-21 -17 -41 -19
-178 -19 -150 0 -155 1 -178 25 l-25 24 0 372 c0 344 -1 374 -18 403 -11 17
-79 132 -152 256 -73 124 -191 321 -262 439 -70 117 -128 222 -128 233 0 29
18 58 43 69 32 13 178 5 205 -12z"/>
</g>
</svg>
